<svg width="213" height="60" viewBox="0 0 213 60" fill="none" xmlns="http://www.w3.org/2000/svg">
<path d="M24.4419 59.96C23.5885 59.8533 21.7752 59.6667 19.0019 59.4C16.2285 59.1333 13.8019 59 11.7219 59C9.85521 59 7.66854 59.08 5.16188 59.24C2.65521 59.4533 1.02854 59.5867 0.281875 59.64L0.921875 52.2C2.94854 51.88 4.30854 51.2667 5.00188 50.36C5.74854 49.4 6.12188 47.8 6.12188 45.56V18.76C6.12188 17.1067 5.96188 15.9867 5.64188 15.4C5.37521 14.76 4.86854 14.44 4.12188 14.44C3.53521 14.44 3.00188 14.4667 2.52188 14.52C2.04188 14.5733 1.72188 14.6 1.56187 14.6L0.761875 13.48L1.48188 7C2.44188 7 4.14854 7.05333 6.60188 7.16C9.10854 7.21333 11.4552 7.24 13.6419 7.24C15.1885 7.24 17.5352 7.18666 20.6819 7.08C23.8285 6.92 25.9085 6.81333 26.9219 6.76C35.2952 6.76 41.6152 8.78666 45.8819 12.84C50.1485 16.8933 52.2819 22.8933 52.2819 30.84C52.2819 36.76 51.1352 41.9067 48.8419 46.28C46.6019 50.6533 43.3752 54.04 39.1619 56.44C35.0019 58.7867 30.0952 59.96 24.4419 59.96ZM24.0419 16.92C23.4552 16.92 23.0285 17.08 22.7619 17.4C22.5485 17.72 22.4152 18.28 22.3619 19.08C21.8285 26.7067 21.5619 35.6933 21.5619 46.04C21.5619 47.5867 21.7485 48.6267 22.1219 49.16C22.5485 49.6933 23.3219 49.96 24.4419 49.96C27.9085 49.96 30.3619 48.7333 31.8019 46.28C33.2419 43.8267 33.9619 39.6933 33.9619 33.88C33.9619 29.4533 33.6419 26.04 33.0019 23.64C32.4152 21.1867 31.4019 19.4533 29.9619 18.44C28.5752 17.4267 26.6019 16.92 24.0419 16.92ZM54.1919 52.68C55.7385 52.5733 56.8852 52.1467 57.6319 51.4C58.3785 50.6 58.7519 49.4533 58.7519 47.96V34.28C58.7519 32.4133 58.4852 31.1867 57.9519 30.6C57.4719 29.96 56.4585 29.64 54.9119 29.64C54.5919 29.64 54.2452 29.6933 53.8719 29.8C53.5519 29.8533 53.3119 29.88 53.1519 29.88L53.7919 23.24C57.7919 22.76 61.7652 22.2 65.7119 21.56C69.7119 20.92 72.2719 20.4933 73.3919 20.28L74.4319 22.04C73.1519 24.44 72.5119 33.72 72.5119 49.88C72.5119 50.7867 72.6452 51.4267 72.9119 51.8C73.2319 52.12 73.7652 52.28 74.5119 52.28C74.8852 52.28 75.2585 52.2533 75.6319 52.2C76.0052 52.1467 76.2452 52.12 76.3519 52.12L76.5919 52.52L75.6319 59.32C74.8319 59.2667 73.3652 59.1867 71.2319 59.08C69.1519 59.0267 67.0185 59 64.8319 59C62.8585 59 60.6185 59.1067 58.1119 59.32C55.6052 59.5333 53.9785 59.6933 53.2319 59.8L54.1919 52.68ZM64.7519 16.6C62.2985 16.6 60.4319 15.96 59.1519 14.68C57.8719 13.3467 57.2319 11.4533 57.2319 9C57.2319 6.44 57.9519 4.41333 59.3919 2.92C60.8852 1.42666 62.8852 0.679997 65.3919 0.679997C67.7385 0.679997 69.5519 1.34666 70.8319 2.68C72.1652 4.01333 72.8319 5.88 72.8319 8.28C72.8319 10.84 72.1119 12.8667 70.6719 14.36C69.2319 15.8533 67.2585 16.6 64.7519 16.6ZM101.847 52.28C102.807 52.1733 103.5 51.8533 103.927 51.32C104.354 50.7333 104.594 49.8267 104.647 48.6L104.807 37.32C104.86 35.2933 104.62 33.88 104.087 33.08C103.607 32.28 102.7 31.88 101.367 31.88C100.407 31.88 99.2069 32.44 97.7669 33.56C97.1269 43.2667 96.8069 48.6 96.8069 49.56C96.8069 50.5733 96.9402 51.2667 97.2069 51.64C97.4735 51.96 97.9802 52.12 98.7269 52.12L100.007 52.04L100.247 52.44L99.2869 59.32C98.5935 59.2667 97.2869 59.1867 95.3669 59.08C93.4469 59.0267 91.5002 59 89.5269 59C87.4469 59 85.2069 59.0533 82.8069 59.16C80.4069 59.2667 78.8602 59.3467 78.1669 59.4L79.1269 52.44C80.6735 52.3333 81.7402 51.9867 82.3269 51.4C82.9135 50.8133 83.2069 49.7733 83.2069 48.28V34.44C83.2069 32.5733 82.9402 31.3467 82.4069 30.76C81.9269 30.12 80.9135 29.8 79.3669 29.8H78.0869L77.6869 29.24L78.3269 23.24C82.1669 22.7067 85.9802 22.1467 89.7669 21.56C93.6069 20.92 96.0869 20.4933 97.2069 20.28L98.1669 21.24C98.0602 21.6133 97.9002 22.4133 97.6869 23.64C97.4735 24.8133 97.3135 25.96 97.2069 27.08L97.7669 27.4C102.3 22.6533 105.18 20.28 106.407 20.28C110.727 20.28 114.007 21.16 116.247 22.92C118.54 24.68 119.687 27.2667 119.687 30.68C119.687 31.64 119.554 33.2933 119.287 35.64C119.074 37.9867 118.914 39.5867 118.807 40.44C118.22 45.0267 117.927 48.0133 117.927 49.4C117.927 50.52 118.087 51.2933 118.407 51.72C118.727 52.1467 119.287 52.36 120.087 52.36L122.087 52.28L122.247 52.6L121.367 59.32C120.567 59.2667 119.127 59.1867 117.047 59.08C114.967 59.0267 112.94 59 110.967 59C109.154 59 107.26 59.0267 105.287 59.08C103.314 59.1867 101.954 59.24 101.207 59.24L101.847 52.28ZM144.095 59.96C137.802 59.96 132.948 58.28 129.535 54.92C126.175 51.56 124.495 46.7867 124.495 40.6C124.495 36.5467 125.322 33 126.975 29.96C128.682 26.8667 131.055 24.4933 134.095 22.84C137.188 21.1333 140.788 20.28 144.895 20.28C155.028 20.28 160.095 25.6133 160.095 36.28C160.095 37.8267 159.882 39.5867 159.455 41.56L158.575 42.36H139.615C139.828 44.7067 140.602 46.4933 141.935 47.72C143.268 48.9467 145.108 49.56 147.455 49.56C150.122 49.56 153.295 48.76 156.975 47.16L157.695 47.56L159.455 53.48C157.322 55.1333 154.815 56.6267 151.935 57.96C149.055 59.2933 146.442 59.96 144.095 59.96ZM145.855 35.8C146.282 35.7467 146.548 35.64 146.655 35.48C146.762 35.2667 146.815 34.8933 146.815 34.36C146.815 30.8933 145.748 29.16 143.615 29.16C142.015 29.16 140.868 29.72 140.175 30.84C139.535 31.9067 139.215 33.72 139.215 36.28L145.855 35.8ZM186.696 59.96C178.963 59.96 173.043 57.7467 168.936 53.32C164.883 48.84 162.856 42.4133 162.856 34.04C162.856 25.08 165.096 18.2267 169.576 13.48C174.056 8.68 180.536 6.28 189.016 6.28C196.91 6.28 202.856 8.44 206.856 12.76C210.856 17.0267 212.856 23.3733 212.856 31.8C212.856 40.8133 210.59 47.7733 206.056 52.68C201.523 57.5333 195.07 59.96 186.696 59.96ZM188.216 49.88C190.51 49.88 192.136 48.8933 193.096 46.92C194.056 44.8933 194.536 41.5333 194.536 36.84C194.536 31.9333 194.296 28.0667 193.816 25.24C193.39 22.4133 192.643 20.3867 191.576 19.16C190.563 17.88 189.15 17.24 187.336 17.24C185.096 17.24 183.496 18.2267 182.536 20.2C181.63 22.12 181.176 25.4267 181.176 30.12C181.176 35.0267 181.39 38.92 181.816 41.8C182.296 44.6267 183.043 46.68 184.056 47.96C185.07 49.24 186.456 49.88 188.216 49.88Z" fill="white"/>
</svg>
